<svg xmlns="http://www.w3.org/2000/svg" xmlns:xlink="http://www.w3.org/1999/xlink" width="240" zoomAndPan="magnify" viewBox="0 0 180 44.999999" height="60" preserveAspectRatio="xMidYMid meet" version="1.0"><defs><filter x="0%" y="0%" width="100%" height="100%" id="70bea5b3b5"><feColorMatrix values="0 0 0 0 1 0 0 0 0 1 0 0 0 0 1 0 0 0 1 0" color-interpolation-filters="sRGB"/></filter><filter x="0%" y="0%" width="100%" height="100%" id="7551ce9b87"><feColorMatrix values="0 0 0 0 1 0 0 0 0 1 0 0 0 0 1 0.2126 0.7152 0.0722 0 0" color-interpolation-filters="sRGB"/></filter><g/></defs><g fill="#ffffff" fill-opacity="1"><g transform="translate(9.571029, 31.874998)"><g><path d="M 5.109375 -24.6875 L 17.765625 -7.875 L 17.828125 -7.875 L 17.828125 -24.046875 L 22.515625 -24.046875 L 22.515625 0.484375 L 19.140625 0.484375 L 6.46875 -16.328125 L 6.40625 -16.328125 L 6.40625 0 L 1.71875 0 L 1.71875 -24.6875 Z M 5.109375 -24.6875 "/></g></g></g><g fill="#ffffff" fill-opacity="1"><g transform="translate(43.344006, 31.874998)"><g><path d="M 14.15625 -24.046875 L 14.15625 -19.96875 L 6.40625 -19.96875 L 6.40625 -14.671875 L 13.875 -14.671875 L 13.875 -10.59375 L 6.40625 -10.59375 L 6.40625 -4.078125 L 14.15625 -4.078125 L 14.15625 0 L 1.71875 0 L 1.71875 -24.046875 Z M 14.15625 -24.046875 "/></g></g></g><g fill="#ffffff" fill-opacity="1"><g transform="translate(68.475711, 31.874998)"><g><path d="M 6.5 -24.046875 L 10.328125 -16.578125 L 13.84375 -24.046875 L 19.390625 -24.046875 L 12.71875 -12.71875 L 20.125 0 L 14.671875 0 L 9.828125 -8.796875 L 5.234375 0 L -0.25 0 L 7.4375 -12.71875 L 0.953125 -24.046875 Z M 6.5 -24.046875 "/></g></g></g><g fill="#ffffff" fill-opacity="1"><g transform="translate(97.912111, 31.874998)"><g><path d="M 14.375 -24.046875 L 14.375 -19.96875 L 9.53125 -19.96875 L 9.53125 0 L 4.84375 0 L 4.84375 -19.96875 L 0 -19.96875 L 0 -24.046875 Z M 14.375 -24.046875 "/></g></g></g><g fill="#ffffff" fill-opacity="1"><g transform="translate(121.864009, 31.874998)"><g><path d="M 12.46875 -24.046875 L 12.46875 0 L 7.78125 0 L 7.78125 -19.96875 L 4.625 -19.96875 L 4.625 -24.046875 Z M 12.46875 -24.046875 "/></g></g></g><g fill="#ffffff" fill-opacity="1"><g transform="translate(149.865514, 31.874998)"><g><path d="M 0.609375 -11.984375 C 0.609375 -14.066406 0.925781 -16.09375 1.5625 -18.0625 C 2.195312 -20.03125 3.160156 -21.625 4.453125 -22.84375 C 5.753906 -24.070312 7.34375 -24.6875 9.21875 -24.6875 C 11.082031 -24.6875 12.675781 -24.066406 14 -22.828125 C 15.320312 -21.597656 16.289062 -20.015625 16.90625 -18.078125 C 17.519531 -16.148438 17.828125 -14.128906 17.828125 -12.015625 C 17.828125 -9.910156 17.5 -7.875 16.84375 -5.90625 C 16.195312 -3.945312 15.21875 -2.363281 13.90625 -1.15625 C 12.601562 0.0390625 11.039062 0.640625 9.21875 0.640625 C 7.320312 0.640625 5.722656 0.0195312 4.421875 -1.21875 C 3.128906 -2.46875 2.171875 -4.0625 1.546875 -6 C 0.921875 -7.945312 0.609375 -9.941406 0.609375 -11.984375 Z M 9.1875 -20.59375 C 8 -20.59375 7.035156 -19.765625 6.296875 -18.109375 C 5.566406 -16.453125 5.203125 -14.421875 5.203125 -12.015625 C 5.203125 -9.722656 5.566406 -7.71875 6.296875 -6 C 7.035156 -4.289062 8.007812 -3.4375 9.21875 -3.4375 C 10.175781 -3.4375 10.957031 -3.910156 11.5625 -4.859375 C 12.164062 -5.804688 12.59375 -6.929688 12.84375 -8.234375 C 13.101562 -9.546875 13.234375 -10.742188 13.234375 -11.828125 C 13.234375 -14.335938 12.875 -16.425781 12.15625 -18.09375 C 11.445312 -19.757812 10.457031 -20.59375 9.1875 -20.59375 Z M 9.1875 -20.59375 "/></g></g></g><g fill="#ffffff" fill-opacity="1"><g transform="translate(177.875705, 31.874998)"><g/></g></g></svg>